<?xml version="1.0" standalone="no"?>
<!DOCTYPE svg PUBLIC "-//W3C//DTD SVG 20010904//EN"
 "http://www.w3.org/TR/2001/REC-SVG-20010904/DTD/svg10.dtd">
<svg version="1.0" xmlns="http://www.w3.org/2000/svg"
 width="1600.000000pt" height="1600.000000pt" viewBox="0 0 1600.000000 1600.000000"
 preserveAspectRatio="xMidYMid meet">
<metadata>
Created by potrace 1.11, written by Peter Selinger 2001-2013
</metadata>
<g transform="translate(0.000000,1600.000000) scale(0.100000,-0.100000)"
fill="#000000" stroke="none">
<path d="M7658 14715 c-2 -2 -64 -6 -138 -10 -74 -3 -151 -8 -170 -10 -19 -1
-71 -6 -115 -10 -104 -8 -141 -12 -250 -25 -111 -13 -132 -16 -295 -40 -88
-13 -270 -46 -355 -64 -39 -8 -82 -17 -95 -19 -256 -47 -761 -193 -1115 -322
-383 -140 -864 -364 -1183 -552 -41 -24 -75 -43 -77 -43 -5 0 -176 -108 -315
-198 -130 -85 -390 -268 -405 -286 -5 -7 -26 -23 -45 -36 -19 -13 -37 -27 -40
-30 -3 -3 -36 -30 -75 -60 -38 -30 -72 -57 -75 -61 -3 -3 -36 -32 -75 -64
-252 -212 -590 -552 -781 -785 -16 -19 -31 -37 -34 -40 -13 -12 -191 -242
-251 -325 -289 -397 -543 -856 -713 -1285 -32 -80 -61 -154 -66 -165 -45 -104
-167 -514 -204 -687 -22 -97 -66 -321 -71 -358 -3 -25 -8 -52 -10 -60 -2 -8
-7 -39 -10 -69 -4 -30 -8 -62 -10 -72 -2 -10 -7 -49 -10 -86 -4 -37 -8 -78
-10 -91 -26 -159 -26 -924 -1 -1058 2 -10 7 -50 10 -89 4 -38 8 -81 10 -95 3
-14 7 -47 11 -75 5 -42 26 -177 40 -250 70 -388 220 -865 392 -1250 72 -161
214 -438 270 -527 12 -21 23 -40 23 -43 0 -3 20 -36 45 -75 25 -39 45 -72 45
-74 0 -10 252 -380 300 -439 5 -7 58 -73 116 -147 167 -210 273 -329 489 -546
219 -220 306 -300 460 -429 33 -27 62 -52 65 -55 21 -23 238 -188 405 -309 55
-39 111 -79 124 -89 13 -9 27 -19 32 -22 22 -15 -12 -242 -75 -495 -36 -146
-181 -567 -206 -600 -4 -5 -11 -21 -15 -35 -18 -60 -195 -422 -251 -517 -19
-30 -34 -57 -34 -59 0 -6 -136 -228 -186 -305 -27 -41 -135 -199 -241 -351
-106 -153 -193 -281 -193 -284 0 -7 899 2 945 10 17 3 56 7 89 11 66 6 171 21
286 40 131 21 357 75 490 116 36 11 72 22 80 24 54 12 347 125 459 176 535
247 960 544 1366 953 88 89 165 162 170 161 6 0 33 -6 60 -12 71 -17 235 -52
265 -57 27 -4 132 -24 166 -30 70 -14 308 -46 524 -71 35 -4 135 -13 220 -20
122 -10 387 -19 580 -19 205 0 542 11 592 19 13 2 64 6 113 9 50 3 99 8 110
10 11 2 56 7 99 11 43 4 86 8 95 10 9 1 43 6 76 9 33 4 85 11 115 16 30 5 73
11 95 14 33 4 182 29 310 52 17 3 82 17 145 31 63 13 122 26 130 28 50 10 246
60 304 77 38 11 76 21 85 23 9 2 39 11 66 19 28 8 82 24 120 35 150 43 526
176 640 226 17 7 69 29 116 48 47 20 121 52 163 71 43 20 79 36 82 36 7 0 352
173 420 210 449 248 839 508 1159 771 342 282 710 646 940 930 11 14 47 58 81
99 33 41 71 91 84 110 13 19 27 37 31 40 23 18 258 365 352 522 346 576 590
1196 721 1838 14 69 28 141 31 160 5 31 12 74 20 120 2 9 6 43 10 75 4 33 9
67 10 75 2 8 6 47 10 85 4 39 9 84 11 100 26 220 25 773 -1 1035 -3 25 -7 70
-10 100 -9 90 -16 142 -25 200 -5 30 -12 73 -15 95 -9 64 -15 99 -21 116 -2 9
-7 34 -10 55 -2 21 -9 54 -14 73 -5 20 -19 79 -30 131 -92 408 -239 815 -445
1235 -337 687 -779 1278 -1372 1835 -135 127 -173 161 -313 276 -551 454
-1164 826 -1810 1100 -58 25 -114 49 -125 54 -156 73 -795 288 -964 325 -9 2
-69 17 -133 34 -105 28 -303 73 -368 85 -14 3 -50 10 -80 16 -30 6 -71 13 -90
16 -19 2 -46 6 -60 9 -14 3 -36 7 -49 10 -35 7 -289 43 -346 50 -27 3 -61 8
-75 10 -14 3 -60 7 -103 11 -43 3 -86 7 -96 9 -10 2 -65 6 -122 10 -57 4 -122
9 -144 11 -45 5 -852 13 -857 9z m827 -649 c186 -14 234 -18 265 -21 146 -15
339 -39 410 -52 19 -3 44 -7 55 -8 11 -1 36 -5 55 -8 19 -4 46 -9 60 -11 96
-15 281 -51 340 -66 19 -5 46 -11 60 -13 14 -3 45 -10 70 -17 25 -7 54 -14 65
-16 64 -12 409 -112 566 -165 467 -156 953 -375 1341 -604 9 -5 43 -25 75 -44
32 -19 84 -51 115 -72 31 -22 59 -39 62 -39 10 0 234 -155 381 -265 83 -61
220 -170 305 -241 156 -130 532 -495 652 -634 75 -87 244 -293 273 -334 26
-36 72 -97 85 -113 24 -29 213 -317 268 -410 258 -432 465 -930 581 -1398 30
-120 69 -303 77 -360 2 -16 6 -41 9 -55 2 -13 7 -42 10 -65 3 -22 10 -71 15
-110 27 -198 34 -329 35 -615 0 -232 -7 -424 -20 -501 -2 -13 -6 -51 -10 -84
-13 -118 -16 -141 -25 -190 -6 -27 -12 -67 -14 -87 -2 -20 -7 -45 -10 -55 -2
-10 -7 -34 -10 -53 -3 -19 -10 -50 -15 -67 -5 -18 -8 -33 -6 -33 3 0 1 -10 -4
-23 -5 -13 -12 -39 -15 -59 -10 -62 -113 -410 -161 -543 -206 -572 -556 -1182
-931 -1625 -131 -155 -264 -300 -384 -421 -164 -164 -283 -272 -479 -435 -43
-36 -262 -204 -291 -224 -12 -8 -41 -29 -64 -46 -110 -82 -428 -284 -581 -369
-215 -120 -464 -244 -640 -320 -60 -26 -128 -55 -150 -65 -82 -36 -366 -140
-520 -190 -243 -78 -300 -95 -425 -125 -30 -7 -93 -23 -140 -35 -47 -12 -96
-24 -110 -27 -13 -2 -56 -11 -95 -19 -163 -35 -203 -43 -360 -68 -82 -14 -177
-28 -210 -32 -33 -4 -62 -9 -65 -9 -3 -1 -41 -5 -85 -9 -44 -4 -91 -9 -104
-11 -13 -3 -61 -7 -105 -10 -45 -4 -97 -8 -116 -10 -158 -18 -708 -24 -950
-11 -256 15 -251 14 -475 41 -22 3 -65 7 -95 10 -30 4 -62 8 -70 10 -8 3 -35
7 -60 10 -25 3 -83 12 -130 21 -47 8 -107 19 -135 24 -27 4 -95 18 -150 30
-55 12 -111 24 -125 26 -28 6 -168 39 -333 79 -88 21 -110 23 -120 13 -7 -7
-81 -92 -164 -188 -251 -290 -425 -455 -673 -637 -93 -68 -296 -203 -305 -203
-3 0 -28 -15 -57 -33 -60 -38 -286 -152 -368 -186 -30 -13 -68 -29 -85 -36
-89 -40 -391 -139 -483 -160 -10 -2 -48 -11 -87 -20 -91 -20 -165 -35 -176
-35 -5 0 29 73 75 163 131 253 312 681 356 842 5 17 25 84 45 150 20 66 37
127 39 135 2 8 13 51 24 95 11 44 23 94 26 110 3 17 12 66 20 110 24 135 28
179 41 516 l7 156 -89 59 c-48 32 -90 62 -91 67 -2 4 -8 7 -13 7 -11 0 -277
186 -415 291 -92 70 -312 248 -350 284 -6 5 -49 44 -95 85 -195 176 -465 459
-619 650 -25 30 -47 57 -50 60 -3 3 -41 52 -85 110 -228 302 -408 593 -565
916 -44 89 -80 165 -80 168 0 3 -11 29 -24 58 -82 184 -185 482 -244 708 -40
152 -78 329 -88 405 -3 22 -7 47 -9 55 -7 24 -33 214 -40 290 -15 165 -20 280
-19 500 0 307 6 403 41 660 8 63 17 128 19 143 2 16 16 86 30 155 14 70 27
134 29 142 46 226 189 661 294 895 116 255 196 412 309 600 174 292 375 570
593 820 227 261 402 433 694 684 141 121 386 305 565 425 63 42 123 82 133 89
10 7 33 21 51 32 19 11 92 54 163 96 292 174 644 347 948 467 55 21 109 43
120 47 11 4 25 9 31 10 6 2 27 10 45 18 119 55 741 240 914 273 11 2 61 13
110 23 93 21 175 37 290 57 51 9 366 54 415 60 30 3 68 8 84 9 15 2 65 7 110
10 44 4 92 8 105 11 13 2 90 6 170 10 80 3 148 8 149 9 5 5 724 -4 787 -9z"/>
<path d="M5440 9440 l0 -1120 481 0 481 0 -6 -88 c-6 -100 -13 -152 -33 -262
-7 -39 -43 -182 -53 -210 -67 -192 -110 -288 -184 -414 -47 -80 -72 -115 -166
-238 -35 -44 -190 -197 -251 -247 -75 -61 -152 -116 -216 -154 l-53 -32 0
-527 c0 -291 2 -528 4 -528 28 0 328 141 451 212 317 182 597 415 805 668 25
30 48 60 53 65 39 48 128 175 176 254 201 328 342 708 396 1070 8 56 18 120
22 144 3 23 8 601 10 1285 l4 1242 -961 0 -960 0 0 -1120z"/>
<path d="M8640 9440 l0 -1120 481 0 480 0 -5 -87 c-6 -108 -21 -216 -42 -303
-9 -36 -17 -74 -20 -85 -27 -133 -153 -418 -249 -565 -137 -209 -333 -404
-543 -540 l-101 -65 0 -527 c-1 -291 1 -528 3 -528 14 0 169 68 276 120 255
126 450 254 654 430 342 295 594 647 769 1071 60 143 131 371 150 479 3 14 12
59 20 100 9 41 19 102 22 135 4 33 9 71 13 85 3 14 7 586 9 1273 l4 1247 -961
0 -960 0 0 -1120z"/>
</g>
</svg>
